<?xml version="1.0" encoding="iso-8859-1"?>
<!-- Generator: Adobe Illustrator 19.0.0, SVG Export Plug-In . SVG Version: 6.00 Build 0)  -->
<svg version="1.1" id="Capa_1" xmlns="http://www.w3.org/2000/svg" xmlns:xlink="http://www.w3.org/1999/xlink" x="0px" y="0px"
	 viewBox="0 0 480 480" style="enable-background:new 0 0 480 480;" xml:space="preserve">
<path style="fill:#FCF1ED;" d="M124,416c0,30.928-25.072,56-56,56h344c30.928,0,56-25.072,56-56V8H124V416z M172,248v-96h96v96H172z
	 M180,40h232v48H180V40z"/>
<path style="fill:#ED903B;" d="M84,416V48H12v368c0,23.872,14.96,44.2,36,52.256C69.04,460.2,84,439.872,84,416z"/>
<path style="fill:#F7CC40;" d="M124,416V8H84v40v368c0,23.872-14.96,44.2-36,52.256c0.72,0.272,1.464,0.488,2.192,0.736
	c3.672,1.24,7.496,2.136,11.456,2.6c2.088,0.24,4.2,0.408,6.352,0.408C98.928,472,124,446.928,124,416z"/>
<g>
	<rect x="180" y="40" style="fill:#ED903B;" width="232" height="48"/>
	<rect x="172" y="152" style="fill:#ED903B;" width="96" height="96"/>
</g>
<g>
	<path style="fill:#212329;" d="M468,0H124H84c-4.416,0-8,3.576-8,8v32H12c-4.416,0-8,3.576-8,8v368
		c0,26.28,16.512,50.264,41.088,59.704c0.016,0.008,0.024,0.016,0.04,0.024c1.776,0.68,3.576,1.288,5.432,1.816
		c0.016,0,0.024,0,0.04,0.008c0.376,0.104,0.752,0.176,1.128,0.28c1.256,0.336,2.504,0.664,3.792,0.92
		c0.176,0.04,0.352,0.072,0.528,0.112c0.032,0.008,0.064,0,0.104,0.008c0.496,0.096,1,0.152,1.496,0.232
		c0.08,0.016,0.16,0.04,0.208,0.04c1.336,0.216,2.664,0.432,4.024,0.56c0.024,0,0.048,0,0.072,0C63.96,479.896,65.976,480,68,480
		h344c35.288,0,64-28.712,64-64V8C476,3.576,472.416,0,468,0z M92,16h24v400c0,1.632-0.088,3.24-0.248,4.832
		c-0.056,0.544-0.168,1.08-0.24,1.616c-0.136,1.032-0.264,2.072-0.472,3.08c-0.128,0.624-0.312,1.232-0.464,1.848
		c-0.216,0.896-0.424,1.808-0.688,2.688c-0.2,0.648-0.456,1.272-0.68,1.912c-0.288,0.816-0.56,1.648-0.896,2.44
		c-0.272,0.648-0.592,1.272-0.896,1.912c-0.352,0.752-0.688,1.504-1.08,2.232c-0.336,0.632-0.72,1.24-1.088,1.856
		c-0.408,0.688-0.808,1.392-1.256,2.056c-0.408,0.608-0.848,1.184-1.28,1.776c-0.464,0.632-0.92,1.272-1.408,1.888
		c-0.464,0.576-0.968,1.112-1.456,1.664c-0.512,0.584-1.024,1.168-1.568,1.72c-0.52,0.528-1.072,1.032-1.616,1.536
		c-0.56,0.528-1.12,1.056-1.712,1.552c-0.568,0.48-1.168,0.936-1.76,1.392c-0.608,0.472-1.216,0.944-1.848,1.384
		c-0.616,0.432-1.256,0.824-1.896,1.224c-0.648,0.408-1.296,0.816-1.968,1.192c-0.664,0.376-1.344,0.712-2.016,1.056
		c-0.688,0.344-1.368,0.688-2.072,1s-1.424,0.592-2.136,0.872s-1.432,0.552-2.168,0.792c-0.736,0.248-1.48,0.456-2.232,0.664
		s-1.504,0.408-2.272,0.584c-0.76,0.176-1.536,0.32-2.312,0.456c-0.776,0.136-1.56,0.264-2.352,0.36
		c-0.792,0.096-1.584,0.168-2.392,0.232c-0.416,0.032-0.832,0.04-1.248,0.064c1.296-1.152,2.496-2.384,3.696-3.632
		c0.272-0.28,0.568-0.536,0.84-0.824c1.912-2.064,3.648-4.272,5.272-6.568c0.432-0.616,0.832-1.24,1.24-1.872
		c1.24-1.888,2.376-3.832,3.416-5.84c0.312-0.6,0.648-1.184,0.936-1.792c1.216-2.536,2.272-5.152,3.144-7.84
		c0.176-0.544,0.296-1.096,0.456-1.64c0.664-2.248,1.2-4.528,1.616-6.848c0.136-0.784,0.28-1.552,0.392-2.344
		C91.72,421.832,92,418.936,92,416V48V16z M20,416V56h56v360c0,2.4-0.2,4.776-0.552,7.112c-0.12,0.776-0.352,1.512-0.512,2.28
		c-0.312,1.544-0.616,3.088-1.08,4.576c-0.272,0.88-0.656,1.72-0.976,2.584c-0.496,1.32-0.968,2.648-1.576,3.92
		c-0.424,0.888-0.944,1.72-1.416,2.576c-0.648,1.176-1.288,2.352-2.032,3.464c-0.56,0.848-1.208,1.632-1.824,2.44
		c-0.792,1.04-1.576,2.072-2.448,3.048c-0.696,0.776-1.464,1.496-2.208,2.232c-0.912,0.896-1.824,1.776-2.808,2.6
		c-0.824,0.688-1.704,1.312-2.576,1.952c-1.024,0.744-2.056,1.472-3.136,2.128c-0.936,0.576-1.92,1.088-2.904,1.6
		c-0.688,0.352-1.392,0.672-2.096,0.992C31.072,451.696,20,434.624,20,416z M460,416c0,26.472-21.528,48-48,48H110.288
		c0.456-0.4,0.864-0.864,1.304-1.28c0.872-0.816,1.736-1.648,2.568-2.512c0.664-0.688,1.296-1.4,1.928-2.12
		c0.784-0.896,1.544-1.808,2.28-2.744c0.592-0.752,1.16-1.52,1.72-2.296c0.696-0.968,1.352-1.968,1.992-2.976
		c0.512-0.808,1.016-1.616,1.488-2.448c0.6-1.056,1.16-2.136,1.704-3.224c0.424-0.84,0.848-1.68,1.232-2.544
		c0.504-1.144,0.952-2.312,1.392-3.48c0.328-0.864,0.664-1.72,0.952-2.6c0.408-1.256,0.736-2.536,1.064-3.816
		c0.216-0.848,0.472-1.68,0.656-2.544c0.312-1.448,0.52-2.92,0.728-4.4c0.104-0.736,0.256-1.456,0.336-2.2
		c0.232-2.248,0.368-4.512,0.368-6.816V16h328V416z"/>
	<path style="fill:#212329;" d="M180,96h232c4.416,0,8-3.576,8-8V40c0-4.424-3.584-8-8-8H180c-4.416,0-8,3.576-8,8v48
		C172,92.424,175.584,96,180,96z M188,48h216v32H188V48z"/>
	<rect x="148" y="112" style="fill:#212329;" width="296" height="16"/>
	<path style="fill:#212329;" d="M268,256c4.416,0,8-3.576,8-8v-96c0-4.424-3.584-8-8-8h-96c-4.416,0-8,3.576-8,8v96
		c0,4.424,3.584,8,8,8H268z M180,160h80v80h-80V160z"/>
	<rect x="308" y="144" style="fill:#212329;" width="120" height="16"/>
	<rect x="308" y="176" style="fill:#212329;" width="120" height="16"/>
	<rect x="308" y="208" style="fill:#212329;" width="120" height="16"/>
	<rect x="308" y="240" style="fill:#212329;" width="120" height="16"/>
	<rect x="164" y="280" style="fill:#212329;" width="264" height="16"/>
	<rect x="164" y="312" style="fill:#212329;" width="264" height="16"/>
	<rect x="164" y="344" style="fill:#212329;" width="264" height="16"/>
	<rect x="164" y="376" style="fill:#212329;" width="264" height="16"/>
</g>
<g>
</g>
<g>
</g>
<g>
</g>
<g>
</g>
<g>
</g>
<g>
</g>
<g>
</g>
<g>
</g>
<g>
</g>
<g>
</g>
<g>
</g>
<g>
</g>
<g>
</g>
<g>
</g>
<g>
</g>
</svg>
