<?xml version="1.0" encoding="iso-8859-1"?>
<!-- Generator: Adobe Illustrator 19.0.0, SVG Export Plug-In . SVG Version: 6.00 Build 0)  -->
<svg version="1.1" id="Layer_1" xmlns="http://www.w3.org/2000/svg" xmlns:xlink="http://www.w3.org/1999/xlink" x="0px" y="0px"
	 viewBox="0 0 511.997 511.997" style="enable-background:new 0 0 511.997 511.997;" xml:space="preserve">
<circle style="fill:#EE4948;" cx="255.999" cy="255.999" r="255.999"/>
<g>
	<path style="fill:#FED159;" d="M383.998,383.998c0,35.338-14.318,67.357-37.48,90.519c-23.188,23.162-55.169,37.48-90.519,37.48
		C114.609,511.997,0,397.388,0,255.999C0,115.714,112.83,1.813,252.692,0.042c-34.038,0.862-64.776,15-87.213,37.438
		c-23.162,23.162-37.48,55.182-37.48,90.519c0,70.701,57.298,127.999,127.999,127.999
		C326.687,255.999,383.998,313.31,383.998,383.998z"/>
	<circle style="fill:#FED159;" cx="255.999" cy="127.999" r="41.7"/>
</g>
<circle style="fill:#EE4948;" cx="255.999" cy="383.998" r="41.7"/>
<g>
</g>
<g>
</g>
<g>
</g>
<g>
</g>
<g>
</g>
<g>
</g>
<g>
</g>
<g>
</g>
<g>
</g>
<g>
</g>
<g>
</g>
<g>
</g>
<g>
</g>
<g>
</g>
<g>
</g>
</svg>
